<?xml version="1.0" encoding="utf-8"?>
<!-- Generator: Adobe Illustrator 27.6.1, SVG Export Plug-In . SVG Version: 6.00 Build 0)  -->
<svg version="1.1" id="Layer_1" xmlns="http://www.w3.org/2000/svg" xmlns:xlink="http://www.w3.org/1999/xlink" x="0px" y="0px"
	 viewBox="0 0 490.9 436.4" style="enable-background:new 0 0 490.9 436.4;" xml:space="preserve">
<style type="text/css">
	.st0{fill:#F9F9F9;stroke:#FFFFFF;stroke-width:2;stroke-miterlimit:10;}
	.st1{fill:#EAEAEA;stroke:#FFFFFF;stroke-width:3;stroke-miterlimit:10;}
	.st2{fill:none;stroke:#FFFFFF;stroke-width:3;stroke-miterlimit:10;}
	.st3{fill:#FFFFFF;stroke:#FFFFFF;stroke-width:2;stroke-miterlimit:10;}
	.st4{fill:#FFFFFF;stroke:#FFFFFF;stroke-width:3;stroke-miterlimit:10;}
</style>
<path class="st0" d="M439.5,311.2c0.2,0.9,0.8,2,0.6,2.6c-5.7,14.1-12.2,27.8-23.4,38.5c-11.3,10.7-23.3,20.6-38.2,25.8
	c-10.4,3.6-21.2,6-32.5,6c-67-0.2-134,0.4-201-0.4c-28.5-0.3-53.7-10.7-72.5-33.1C63,339.2,54,327.2,51.3,311.9
	c3.2-1.1,3.8-3.5,3.8-6.6C55,265.4,55,225.5,55,185.6c0-1.6,0-3.2,0-4.9c-2.2-0.4-3.8-0.6-5.5-0.9c2.4-6.4,4.2-13.1,7.3-19
	c10.7-20,27-34.6,46.8-45c13.8-7.2,29.1-9.8,44.6-9.9c18.5-0.2,36.9-0.1,55.4,0c48.9,0.2,97.7,0.5,146.6,0.8
	c18.1,0.1,34.3,7.1,49.1,16.5c12.2,7.7,22.9,17.9,29.9,30.9c4.2,7.8,6.8,16.3,10.1,24.5c-4,0.7-2.9,3.9-2.9,6.3
	c-0.1,40.1-0.1,80.2-0.1,120.4c0,1.2-0.3,2.5,0.2,3.4C437.2,309.6,438.5,310.3,439.5,311.2L439.5,311.2z M244.7,350.9
	C244.7,350.9,244.7,351,244.7,350.9c25.4,0.1,50.9-0.1,76.3,0.1c15.2,0.1,29.8-1.6,42.5-11c5.1-3.8,11.3-7.1,14.8-12.1
	c8.6-12.4,14.5-26.1,14.5-41.7c-0.1-24.3,0.1-48.5-0.1-72.8c-0.1-11.2-1.3-22.1-6.7-32.4c-4.3-8.1-8.8-15.5-16.4-21.4
	c-13.8-10.6-29.1-15.2-46.2-15.2c-49,0-98.1-0.1-147.2,0c-8,0-16.1-0.2-23.9,1.1c-7.3,1.2-15,3-21.3,6.7c-9.3,5.5-17,13.2-23.1,22.4
	c-5.2,7.8-9.5,16.3-9.7,25.4c-0.7,29.6-0.4,59.2-0.3,88.8c0.1,22.5,12.5,38.6,29,51.8c9.5,7.6,21.2,10.2,33.4,10.2
	C188.5,350.9,216.6,350.9,244.7,350.9L244.7,350.9z"/>
<path class="st1" d="M49.5,179.8c1.6,0.3,3.2,0.6,5.5,0.9c0,1.7,0,3.3,0,4.9c0,39.9,0,79.8,0.1,119.6c0,3.2-0.6,5.5-3.8,6.6
	c-4.2-1.5-8.3-3.1-12.5-4.6c-15.6-5.9-25.1-17.7-31.6-32.5c-6.9-15.8-6.7-32.2-3.7-48.6c1.1-6.2,4.5-12,6.5-18.1
	c4.9-14.6,9.4-29.3,14.4-43.9c2.6-7.8,5.2-15.6,8.8-23c6.3-12.7,12.6-25.5,20.3-37.4c6.7-10.3,14.9-19.6,23-28.9
	c17-19.6,37.7-34.7,60.6-46.7c14.2-7.5,29.3-12.9,44.7-17.8C208.1,2,234.9,0.6,262,1.8c19.2,0.8,37.7,5.4,56,11.3
	c17.1,5.5,33.1,13.1,48.3,22.5c20,12.3,37.6,27.3,53.1,45c12.2,14,22.4,29.1,31.2,45.4c9.1,16.9,14.6,35.2,20.1,53.6
	c3.8,12.6,9.1,24.8,13.5,37.2c5.5,15.2,7,30.7,2.9,46.6c-1.9,7.4-5,14.1-8.4,21c-2.9,5.9-3.4,13-5.2,19.5
	c-5.8,20.7-16.9,38.6-30.3,55.2c-18.3,22.6-40.6,40.5-65,56.1c-3,1.9-6,3.8-5.7,8.7c0.3,5.9-5.7,11-11.5,11c-24,0-47.9-0.2-71.9,0.1
	c-11.2,0.1-15.5-8.1-12.4-17.9c1.8-5.6,7-6.7,11.3-6.8c23.9-0.4,47.9-0.2,71.9-0.2c0.5,0,1.1-0.1,1.5,0.1c7.3,4.9,13.2,0.6,18.5-3.4
	c11.8-8.9,23.4-18.1,34.9-27.5c14.9-12.1,27.2-26.7,37-43.1c6-10.2,10.3-21.4,15.3-32.2c0.4-0.8,0.1-2.2-0.4-3.1
	c-0.2-0.4-1.7-0.4-2.4-0.1c-8.2,3.4-16.5,6.9-24.7,10.4c-1-0.9-2.3-1.6-2.9-2.6c-0.5-0.9-0.2-2.3-0.2-3.4c0-40.1,0-80.2,0.1-120.4
	c0-2.4-1.1-5.6,2.9-6.3c4.1,3.3,8.6,4.4,14.5,3.1c-4.1-11.8-7.1-23.3-11.9-34c-8.1-18.1-18.2-35-30.9-50.4
	c-11.7-14.2-24.8-26.9-39.8-37.5c-14.5-10.2-29.2-20.1-46.4-25.4c-10.6-3.3-20.8-7.8-31.5-10.3c-11-2.6-22.5-3.8-33.8-5.1
	c-16.5-1.9-32.8,0.4-49.2,2.7c-20.7,3-40.2,9.5-58.8,18.4c-16.4,7.8-31.4,17.9-45.3,29.9c-18.8,16.2-34.7,34.8-46.8,56.4
	c-8.5,15.2-15.3,31.2-20.2,48c-0.7,2.6-0.9,5.3-1.5,9C42.5,181.8,46,180.8,49.5,179.8L49.5,179.8z"/>
<path d="M244.7,350.9c-28.1,0-56.2,0-84.3,0c-12.1,0-23.9-2.6-33.4-10.2c-16.5-13.2-28.9-29.3-29-51.8c-0.1-29.6-0.3-59.2,0.3-88.8
	c0.2-9.1,4.5-17.6,9.7-25.4c6.1-9.2,13.9-16.9,23.1-22.4c-2.3,0.9,12.5-4.8,21.3-6.7c7.8-1.3,15.9-1.1,23.9-1.1
	c49.1-0.1,98.1-0.1,147.2,0c17,0,32.4,4.6,46.2,15.2c7.6,5.9,12.1,13.2,16.4,21.4c5.4,10.3,6.7,21.2,6.7,32.4
	c0.1,24.3,0,48.5,0.1,72.8c0.1,15.6-5.9,29.3-14.5,41.7c-3.5,5-9.7,8.3-14.8,12.1c-12.7,9.4-27.3,11.1-42.5,11
	C295.6,350.8,270.2,351,244.7,350.9C244.7,351,244.7,351,244.7,350.9L244.7,350.9z M245.9,312.8c10.6,1,20.7-0.4,30.4-4.8
	c7.3-3.3,14.7-6.2,21.8-9.8c2.6-1.3,5-3.6,6.5-6c0.8-1.2-0.2-5-1.3-5.5c-2.3-1-5.5-1.4-7.8-0.5c-9.5,3.5-18.6,7.8-28.2,11.1
	c-5.8,2-12,3.4-18.1,3.7c-19.4,1.2-36.4-7-53.1-15.4c-4.4-2.2-8.1-1.6-10.5,2.7c-1.6,2.8,0,7.1,3.8,8.8c5.3,2.4,11,4,16.3,6.5
	C218.4,309.6,231.4,314.5,245.9,312.8L245.9,312.8z M334.7,214.4c1.1-10.3-9.7-19.1-17.3-18.9c-11.8,0.2-17.9,5.6-18.4,19.7
	c-0.3,9.7,9.1,15.9,17.7,16.1C327.5,231.5,334.6,224.7,334.7,214.4z M156.2,212.8c-0.1,10.8,7.4,19.4,17.1,19.2
	c7.9-0.1,17.6-8.8,18.4-15.8c1.8-14.2-9.3-20-18.9-20.6C164.5,195.1,156.2,204.1,156.2,212.8L156.2,212.8z"/>
<path class="st2" d="M156.2,212.9c0.1-8.8,8.4-17.8,16.6-17.2c9.7,0.6,20.7,6.5,18.9,20.6c-0.9,7.1-10.6,15.7-18.4,15.8"/>
<circle class="st3" cx="317" cy="213.3" r="19.2"/>
<circle class="st3" cx="174" cy="213.3" r="19.2"/>
<path class="st4" d="M298,298.2c5.7-2.6,6.7-7.1,5.2-9.6c-1.2-2-4.4-3.7-8.4-2.4l-6,2.3l-5.2,2.1l-6.1,2.5l-8.6,3.3l-5.7,1.9
	l-5.4,1.2c-1.4,0.3-2.9,0.6-4.3,0.7l-2.4,0.3c-1.4,0.2-2.9,0.3-4.3,0.3h-2.2c-1.4,0-2.7,0-4.1-0.2l-4.2-0.4l-6.2-1.1l-5.7-1.5
	l-3.7-1.2l-4.9-1.8l-7.8-3.4l-6.8-3.2l-5.6-2.5c-2.5-1.1-5.4-1.2-7.9,0.1c-1.1,0.5-2,1.3-2.5,2.4c-0.7,1.8,0.2,3.8,1.4,5.5
	c1.5,2.1,3.6,3.7,6,4.7l4.3,1.7l6.6,2.6l10.9,4.8l5.7,2.2l7.2,2l6.6,1.1l4.8,0.3h5.3h6.9c0.7,0,1.4,0,2.1-0.1l4.7-0.3l4.8-0.7
	c1.2-0.2,2.3-0.4,3.4-0.7l3.8-1.1c1.1-0.3,2.3-0.7,3.3-1.2l6.7-2.8l8.7-3.8l7.1-3.2L298,298.2z"/>
</svg>
