<?xml version="1.0" encoding="UTF-8"?>
<svg id="Layer_1" data-name="Layer 1" xmlns="http://www.w3.org/2000/svg" viewBox="0 0 149.17 177.74">
  <defs>
    <style>
      .cls-1 {
        fill: #e6e5e3;
      }
    </style>
  </defs>
  <path class="cls-1" d="m18.94,177.73c-1.61,0-3.22.02-4.83,0-3.14-.05-5.3-2.18-5.32-5.3-.03-6.12-.31-12.27.07-18.36.41-6.54,2.93-12.14,7.71-17.05,5.33-5.47,11.81-6.75,18.75-7.12,4.64-.25,9.36.45,13.95.24,7.16-.33,14.31-.23,21.46-.25,5.86-.02,11.76.27,17.58.16,8.44-.16,16.88-.02,25.32-.19,5.96-.12,11.52,1.47,16.3,4.99,5.73,4.22,9.09,9.96,10,17.15.85,6.67.21,13.34.45,20.01.08,2.34-1.35,3.83-2.91,5.26-1.73.66-3.53.46-5.32.5-.48,0-.97,0-1.45,0-.32,0-.65,0-.97,0h-10.64c-.65,0-1.29,0-1.94,0-1.45,0-2.9,0-4.36,0-3.87,0-7.74,0-11.61,0-.97,0-1.94,0-2.9,0-.65,0-1.29,0-1.94,0-.48,0-.97,0-1.45,0-1.61,0-3.22,0-4.84,0-1.78,0-3.55,0-5.32,0-2.42,0-4.84,0-7.26,0-1.61,0-3.23,0-4.84,0-1.77,0-3.55,0-5.32,0-.32,0-.65,0-.97,0-.48,0-.97,0-1.45,0-3.23,0-6.45,0-9.68,0-1.45,0-2.9,0-4.35,0-2.26,0-4.52,0-6.77,0-.81,0-1.61,0-2.42,0-1.94,0-3.87,0-5.81,0-.97,0-1.93,0-2.9,0-2.74,0-5.48,0-8.23,0-1.94,0-3.87,0-5.81,0Z"/>
  <path class="cls-1" d="m9.75,67.38c2.37.41,3.11-.74,3.46-2.98.63-4.04,2-7.84,3.9-11.53,3.47-6.76,8.46-12.01,14.89-15.85,3.24-1.94,7-2.62,10.77-3.04,8.34-.92,16.7-.33,25.05-.42,1.91-.02,2.6-.55,2.44-2.47-.15-1.68-.09-3.38-.02-5.07.12-2.76.09-5.13-2.85-6.95-2.06-1.27-2.66-4.11-2.94-6.62-.15-1.35-.02-2.73-.02-4.1.37-.23.46-.58.47-.98,2.64-6.56,6.63-8.31,12.13-6.95,5.44,1.35,8.74,7.1,7.55,12.55-.43,1.99-1.18,3.82-2.26,5.53-.16.48-.33.95-.49,1.43-1.73-.16-2.49.54-2.43,2.36.1,3.06.1,6.13,0,9.19-.05,1.62.57,2.06,2.12,2.05,5.96-.07,11.93.02,17.89-.04,5.68-.05,11.31.57,16.44,2.99,3.95,1.86,7.61,4.42,10.54,7.8,4.78,5.5,7.92,11.82,9.48,18.94.94,4.27.97,4.27,5.22,4.64,7.09.63,7.89,1.14,7.91,8.22.02,5.9.56,11.83-.36,17.73-.44,2.8-2.89,4.74-6.48,4.29-1.51-.19-2.95.17-4.47-.04-1.99-.28-.79,1.76-1.15,2.72,0,.32-.01.64-.02.96-.66,1.73-1.53,3.4-1.45,5.33,0,.31,0,.63,0,.94-2.03,1.25-2.65,3.6-3.92,5.39-3.9,5.51-9.51,7.55-15.63,7.6-27.64.22-55.28.32-82.92-.03-9.15-.12-14.04-4.55-17.63-12.9-1.36-3.17-1.65-6.66-3.26-9.71-.65,0-1.29,0-1.94,0-8.23.46-10.11-1.38-9.7-9.74.14-2.88.02-5.77.02-8.65,0-.64,0-1.29,0-1.93,0-1.45-.05-2.9.01-4.34.2-4.2,2.65-6.18,7.72-6.31.65,0,1.29,0,1.94,0Zm88.78,18.47c4.78,0,7.16-3.37,9.34-6.55,2.47-3.61,1.71-7.26-1.14-10.56-.99-1.15-1.98-2.28-3.08-3.34-2.94-2.82-7.14-2.73-9.81.28-.64.72-1.3,1.42-1.98,2.1-3.62,3.64-4.47,7.01-2.19,11.43,1.84,3.56,4.57,6.38,8.87,6.64Zm-57.81-11.34c-.01,4.26,4.04,9.83,7.91,11.07.45.14.95.13,1.42.2,4.38.64,8.6-3.34,10.09-6.83,2.02-4.72,1.49-7.32-2.14-10.97-.74-.74-1.54-1.45-2.13-2.3-1.01-1.47-2.43-1.96-4.09-2.17-4.58-.56-6.63,2.93-9.03,5.72-1.3,1.51-2.4,3.28-2.04,5.28Z"/>
</svg>