<?xml version="1.0" encoding="utf-8"?>
<!-- Generator: Adobe Illustrator 27.6.1, SVG Export Plug-In . SVG Version: 6.00 Build 0)  -->
<svg version="1.1" id="Layer_1" xmlns="http://www.w3.org/2000/svg" xmlns:xlink="http://www.w3.org/1999/xlink" x="0px" y="0px"
	 viewBox="0 0 256 256" style="enable-background:new 0 0 256 256;" xml:space="preserve">
<g>
	<g>
		<path d="M128,15.5c62,0,112.5,50.5,112.5,112.5S190,240.5,128,240.5S15.5,190,15.5,128S66,15.5,128,15.5 M128,10
			C62.8,10,10,62.8,10,128s52.8,118,118,118s118-52.8,118-118S193.2,10,128,10L128,10z"/>
		<path d="M128,134.5c-18.8,0-34.1-15.3-34.1-34.1s15.3-34.1,34.1-34.1s34.1,15.3,34.1,34.1S146.8,134.5,128,134.5z M128,71.8
			c-15.7,0-28.6,12.8-28.6,28.6S112.2,129,128,129c15.7,0,28.6-12.8,28.6-28.6S143.7,71.8,128,71.8z"/>
		<path d="M183.3,189.8c-1.5,0-2.8-1.2-2.8-2.8c0-29-23.6-52.5-52.5-52.5c-29,0-52.5,23.6-52.5,52.5c0,1.5-1.2,2.8-2.8,2.8
			s-2.8-1.2-2.8-2.8c0-32,26.1-58.1,58.1-58.1s58.1,26.1,58.1,58.1C186.1,188.5,184.8,189.8,183.3,189.8z"/>
	</g>
</g>
</svg>
